<?xml version="1.0" encoding="utf-8" ?>
<svg baseProfile="full" height="3508" version="1.1" width="2480" xmlns="http://www.w3.org/2000/svg" xmlns:ev="http://www.w3.org/2001/xml-events" xmlns:xlink="http://www.w3.org/1999/xlink"><defs /><rect fill="#A9D4DB" height="3508" width="2480" x="0" y="0" /><polygon fill="none" opacity="0.2" points="610.5933333333334,895.4066666666666 609.2884489375643,898.9357858279509 663.8255787943183,1059.376412034448 904.6424050632911,1052.495931283906 916.944032366824,1039.8037761294672 915.3155619596541,1010.8170028818444 625.5689655172414,880.4310344827586" stroke="#336677" stroke-width="0.7" /><polygon fill="none" opacity="0.2" points="572.2170301142264,1289.0875735548632 436.40447504302927,1521.1006884681583 260.4548872180451,1494.0315211104685 246.7140921409214,1351.3386491557224 271.1659944050485,1258.2333289961616 499.40136830102625,1259.7058152793616" stroke="#336677" stroke-width="0.7" /><polygon fill="none" opacity="0.2" points="1105.2736809265687,1399.0577155559022 1036.2582328667368,1500.8916983574723 879.7531449250388,1464.8543425814235 838.5674812441544,1280.6629022308014 847.4890067806538,1275.2775449978599 970.7385018645625,1288.9113387018322 1100.7067160924553,1358.9989097252508" stroke="#336677" stroke-width="0.7" /><polygon fill="none" opacity="0.2" points="676.4757610568639,442.0284319356691 794.6239900559353,423.79568054692356 900.418779986292,782.742289239205 732.6046602738704,810.3743330472744" stroke="#336677" stroke-width="0.7" /><polygon fill="none" opacity="0.2" points="1562.579091907726,2358.0162943976566 1422.0255220417635,2260.709976798144 1393.8791343405471,2580.5552915846915 1477.8627438873796,2561.0863639170166" stroke="#336677" stroke-width="0.7" /><polygon fill="none" opacity="0.2" points="1027.122948520129,1979.4525880207602 1086.228899082569,1998.1623853211008 1103.597119161938,2016.7202095154953 1114.0142526964562,2064.176040061633 1077.6001029336078,2096.4678332475555 996.7503058247859,2132.2377434835794 886.4859550561798,2142.4252106741574 842.9827484833097,2143.0777587727503 887.6437531220514,2005.4340067713827" stroke="#336677" stroke-width="0.7" /><polygon fill="none" opacity="0.2" points="1863.015839403693,1588.640775876673 1686.9531799339704,1703.8287684075888 1654.2929115407146,1875.904510837727 1697.185112747354,2023.7697307869305 1999.2088948787061,1950.6994609164421 2062.738975477419,1694.2548672801745 1922.5594799906023,1590.5804487430496 1894.2548033114251,1580.133736598228" stroke="#336677" stroke-width="0.7" /><polygon fill="none" opacity="0.2" points="635.0625,1837.59375 489.23223909848116,2007.7290543851054 410.66574727389354,1898.4448364336113 584.2258536585366,1824.4463414634147" stroke="#336677" stroke-width="0.7" /><polygon fill="none" opacity="0.2" points="469.79273841222243,1663.6055502417082 308.12396628498726,1800.042779898219 92.49670355545095,1732.552018619478 260.4548872180451,1494.0315211104685 436.40447504302927,1521.1006884681583 440.70870131077436,1529.5352328716185" stroke="#336677" stroke-width="0.7" /><polygon fill="none" opacity="0.2" points="647.250397709195,440.2818962774419 597.1235955056179,358.8258426966292 517.5068493150685,-213.41952054794518 852.534188034188,388.10683760683764 794.6239900559353,423.79568054692356 676.4757610568639,442.0284319356691" stroke="#336677" stroke-width="0.7" /><polygon fill="none" opacity="0.2" points="1472.834713213976,3070.2242580028096 1818.541117036858,3266.976777220334 1782.4575362623502,3427.2610889215894 1092.5156571899465,3278.084466419448 1159.9804312778351,3049.0756002495505" stroke="#336677" stroke-width="0.7" /><polygon fill="none" opacity="0.2" points="341.35855513307985,691.3771863117871 214.80303465441318,810.4589555810836 -57.409395973154375,943.5738255033557 -2180.3679599499374,678.2040050062578 197.90168107020244,391.8767017876169 386.5658884052236,570.8242975860704" stroke="#336677" stroke-width="0.7" /><polygon fill="none" opacity="0.2" points="1743.7329466851122,2474.058795360221 2028.0616701091767,2618.0937407789907 1910.834272432737,2717.1153683617413 1892.2662263067202,2722.6099942561746 1676.4899799599198,2670.300601202405 1601.607682206172,2581.3778726198293" stroke="#336677" stroke-width="0.7" /><polygon fill="none" opacity="0.2" points="1794.8993875562567,678.4111956572171 1793.1495027269812,424.6778954122554 1756.4316834954263,410.104327985298 1560.7945313107741,461.9974718008557 1526.6437246623043,813.5498931821622 1589.8032344511855,807.2891837570254" stroke="#336677" stroke-width="0.7" /><polygon fill="none" opacity="0.2" points="1561.7862309480754,1077.4070007749935 1853.511107781868,1183.3255714408012 1894.2548033114251,1580.133736598228 1863.015839403693,1588.640775876673 1689.9157303370787,1466.8295880149813 1632.9975124378109,1385.9892205638475" stroke="#336677" stroke-width="0.7" /><polygon fill="none" opacity="0.2" points="584.2258536585366,1824.4463414634147 410.66574727389354,1898.4448364336113 367.6809229037704,1877.1164884637028 308.12396628498726,1800.042779898219 469.79273841222243,1663.6055502417082 516.0281274081685,1672.895838684819" stroke="#336677" stroke-width="0.7" /><polygon fill="none" opacity="0.2" points="1676.4899799599198,2670.300601202405 1892.2662263067202,2722.6099942561746 1797.7433697347894,2855.5327613104523 1765.0612588984638,2859.7049456725367 1661.9289384347187,2776.8609505459217" stroke="#336677" stroke-width="0.7" /><polygon fill="none" opacity="0.2" points="-3.106902871105717,2569.8301771533293 -19601.786494184667,3604.854141941609 -2365.410878918254,2029.4864781807005 -719.0226904376012,1913.8805278999769 255.36786961583238,2136.5983701979044 280.45603352838845,2158.974300173968 217.58231173380034,2385.6506129597196 204.38740920096853,2414.209443099274" stroke="#336677" stroke-width="0.7" /><polygon fill="none" opacity="0.2" points="1059.8805338541667,1090.251953125 916.944032366824,1039.8037761294672 915.3155619596541,1010.8170028818444 926.2661691542289,952.4137645107794 1328.9891622729936,880.1301503612576 1360.880693996563,907.1216811168827 1150.7774749651414,1087.9700215489922" stroke="#336677" stroke-width="0.7" /><polygon fill="none" opacity="0.2" points="2506.4179124762163,2864.1352269638487 2074.1419245215525,2973.506260060812 1987.0431950634213,3062.5958176208433 1932.6683527600617,3180.7204750384867 44460.465244865714,12595.27093206951" stroke="#336677" stroke-width="0.7" /><polygon fill="none" opacity="0.2" points="1679.6151152167292,2209.2602273880825 1676.4068122666063,2193.646486364151 1514.7609908639402,2159.7839229873075 1410.46687211094,2197.9630200308166 1422.0255220417635,2260.709976798144 1562.579091907726,2358.0162943976566" stroke="#336677" stroke-width="0.7" /><polygon fill="none" opacity="0.2" points="657.9477611940298,2422.0771144278606 709.045148895293,2183.6226384886327 765.2635326872623,2199.9527404472524 903.7341205211726,2472.5394951140065 902.400617343627,2496.8502838123386 781.8163817355551,2535.623349924259" stroke="#336677" stroke-width="0.7" /><polygon fill="none" opacity="0.2" points="870.4268851164627,1934.4669166995657 887.6437531220514,2005.4340067713827 842.9827484833097,2143.0777587727503 765.2635326872623,2199.9527404472524 709.045148895293,2183.6226384886327 642.9084865976849,2162.052887715312 631.1845164107905,2149.6714986394327 682.0560227713805,1955.1102988743692" stroke="#336677" stroke-width="0.7" /><polygon fill="none" opacity="0.2" points="1676.4068122666063,2193.646486364151 1514.7609908639402,2159.7839229873075 1480.1383438900045,1998.6095319017456 1521.2952755905512,1960.5393700787401 1654.2929115407146,1875.904510837727 1697.185112747354,2023.7697307869305 1703.3812833029028,2146.365391064575" stroke="#336677" stroke-width="0.7" /><polygon fill="none" opacity="0.2" points="673.5916398713827,1844.015273311897 799.460647391284,1711.482612452707 785.6043527358588,1688.1377681962838 545.281287485006,1663.0293882447022 516.0281274081685,1672.895838684819 584.2258536585366,1824.4463414634147 635.0625,1837.59375" stroke="#336677" stroke-width="0.7" /><polygon fill="none" opacity="0.2" points="673.5916398713827,1844.015273311897 682.0560227713805,1955.1102988743692 870.4268851164627,1934.4669166995657 901.0907764156451,1764.8572679509632 900.7597710693316,1748.9690113279164 799.460647391284,1711.482612452707" stroke="#336677" stroke-width="0.7" /><polygon fill="none" opacity="0.2" points="1100.7067160924553,1358.9989097252508 970.7385018645625,1288.9113387018322 1059.8805338541667,1090.251953125 1150.7774749651414,1087.9700215489922 1152.8266871165645,1290.8420245398772" stroke="#336677" stroke-width="0.7" /><polygon fill="none" opacity="0.2" points="799.460647391284,1711.482612452707 900.7597710693316,1748.9690113279164 1043.700932803593,1704.3254966315426 1036.2582328667368,1500.8916983574723 879.7531449250388,1464.8543425814235 768.3313318239984,1585.8814843980706 785.6043527358588,1688.1377681962838" stroke="#336677" stroke-width="0.7" /><polygon fill="none" opacity="0.2" points="482.9972107688576,959.184816880912 214.80303465441318,810.4589555810836 -57.409395973154375,943.5738255033557 135.85663126697952,1083.84755495184 443.0504807692308,1020.2145432692307" stroke="#336677" stroke-width="0.7" /><polygon fill="none" opacity="0.2" points="341.35855513307985,691.3771863117871 610.5933333333334,895.4066666666666 625.5689655172414,880.4310344827586 629.2641156327148,875.1284940670542 546.0845738229132,519.7249972433565 386.5658884052236,570.8242975860704" stroke="#336677" stroke-width="0.7" /><polygon fill="none" opacity="0.2" points="1477.8627438873796,2561.0863639170166 1393.8791343405471,2580.5552915846915 1363.993105530673,2595.5977051985305 1316.8574058816607,2655.65106014494 1606.8661359379182,2851.1625635536525 1661.9289384347187,2776.8609505459217 1676.4899799599198,2670.300601202405 1601.607682206172,2581.3778726198293" stroke="#336677" stroke-width="0.7" /><polygon fill="none" opacity="0.2" points="1990.13336223571,2094.092876675782 1999.2088948787061,1950.6994609164421 2062.738975477419,1694.2548672801745 3144.8852305480486,1850.4917886049614 2109.5753532182102,2289.2277572925414" stroke="#336677" stroke-width="0.7" /><polygon fill="none" opacity="0.2" points="1316.8574058816607,2655.65106014494 1140.6153550200177,2809.4548869385494 1121.3035609051801,2908.115821498026 1159.9804312778351,3049.0756002495505 1472.834713213976,3070.2242580028096 1608.5691087613293,2899.9811178247733 1606.8661359379182,2851.1625635536525" stroke="#336677" stroke-width="0.7" /><polygon fill="none" opacity="0.2" points="2074.1419245215525,2973.506260060812 2095.0704507390956,2654.9275831937666 2050.7466005559313,2610.132202689505 2028.0616701091767,2618.0937407789907 1910.834272432737,2717.1153683617413 1987.0431950634213,3062.5958176208433" stroke="#336677" stroke-width="0.7" /><polygon fill="none" opacity="0.2" points="673.5916398713827,1844.015273311897 682.0560227713805,1955.1102988743692 631.1845164107905,2149.6714986394327 562.0907297667586,2127.5541754015285 489.23223909848116,2007.7290543851054 635.0625,1837.59375" stroke="#336677" stroke-width="0.7" /><polygon fill="none" opacity="0.2" points="1169.6412127684823,2091.5977809422097 1276.7607110300821,2033.8463992707384 1346.881815907954,2049.553526763382 1384.2380952380952,2190.677248677249 1357.888450148075,2198.7285291214216 1200.235773069515,2143.733409210296" stroke="#336677" stroke-width="0.7" /><polygon fill="none" opacity="0.2" points="1037.555914457563,2252.506905769659 1089.62124248497,2232.7074148296592 1077.6001029336078,2096.4678332475555 996.7503058247859,2132.2377434835794" stroke="#336677" stroke-width="0.7" /><polygon fill="none" opacity="0.2" points="657.9477611940298,2422.0771144278606 545.7830304896828,2367.4327584436915 642.9084865976849,2162.052887715312 709.045148895293,2183.6226384886327" stroke="#336677" stroke-width="0.7" /><polygon fill="none" opacity="0.2" points="1123.0746374751209,1408.6582314472562 1299.71169277799,1565.152464654184 1321.947872036561,1712.4671522422166 1301.505716394723,1730.3978430480572 1068.456179574316,1713.798873189054 1043.700932803593,1704.3254966315426 1036.2582328667368,1500.8916983574723 1105.2736809265687,1399.0577155559022" stroke="#336677" stroke-width="0.7" /><polygon fill="none" opacity="0.2" points="386.5658884052236,570.8242975860704 197.90168107020244,391.8767017876169 294.9348469891412,241.30799605133268 597.1235955056179,358.8258426966292 647.250397709195,440.2818962774419 546.0845738229132,519.7249972433565" stroke="#336677" stroke-width="0.7" /><polygon fill="none" opacity="0.2" points="1772.6291106494728,2326.2943205424685 2088.9617470176477,2331.893128265799 2092.489045865623,2475.8710539695257 2050.7466005559313,2610.132202689505 2028.0616701091767,2618.0937407789907 1743.7329466851122,2474.058795360221" stroke="#336677" stroke-width="0.7" /><polygon fill="none" opacity="0.2" points="545.281287485006,1663.0293882447022 583.7431323018629,1585.006788759078 570.2948150490041,1540.70644957319 440.70870131077436,1529.5352328716185 469.79273841222243,1663.6055502417082 516.0281274081685,1672.895838684819" stroke="#336677" stroke-width="0.7" /><polygon fill="none" opacity="0.2" points="545.281287485006,1663.0293882447022 583.7431323018629,1585.006788759078 727.0978817299206,1543.654457193292 768.3313318239984,1585.8814843980706 785.6043527358588,1688.1377681962838" stroke="#336677" stroke-width="0.7" /><polygon fill="none" opacity="0.2" points="629.2641156327148,875.1284940670542 732.6046602738704,810.3743330472744 900.418779986292,782.742289239205 901.5735006951713,783.306398700264 926.2661691542289,952.4137645107794 915.3155619596541,1010.8170028818444 625.5689655172414,880.4310344827586" stroke="#336677" stroke-width="0.7" /><polygon fill="none" opacity="0.2" points="2373.3428300238047,1079.4810166631512 1879.668704799474,1152.3864781941704 1914.8012849357533,905.6219272369715 2052.642878200809,768.3619440700809 2195.626188734455,700.2040965618141 2653.6288023380653,934.5310151497077" stroke="#336677" stroke-width="0.7" /><polygon fill="none" opacity="0.2" points="341.35855513307985,691.3771863117871 214.80303465441318,810.4589555810836 482.9972107688576,959.184816880912 609.2884489375643,898.9357858279509 610.5933333333334,895.4066666666666" stroke="#336677" stroke-width="0.7" /><polygon fill="none" opacity="0.2" points="1028.6108949416343,2266.78453307393 886.4859550561798,2142.4252106741574 996.7503058247859,2132.2377434835794 1037.555914457563,2252.506905769659" stroke="#336677" stroke-width="0.7" /><polygon fill="none" opacity="0.2" points="546.0845738229132,519.7249972433565 647.250397709195,440.2818962774419 676.4757610568639,442.0284319356691 732.6046602738704,810.3743330472744 629.2641156327148,875.1284940670542" stroke="#336677" stroke-width="0.7" /><polygon fill="none" opacity="0.2" points="2506.4179124762163,2864.1352269638487 2095.0704507390956,2654.9275831937666 2074.1419245215525,2973.506260060812" stroke="#336677" stroke-width="0.7" /><polygon fill="none" opacity="0.2" points="613.2045769764217,1286.6545228278837 658.0306366146727,1431.5716471378462 570.2948150490041,1540.70644957319 440.70870131077436,1529.5352328716185 436.40447504302927,1521.1006884681583 572.2170301142264,1289.0875735548632" stroke="#336677" stroke-width="0.7" /><polygon fill="none" opacity="0.2" points="1152.8266871165645,1290.8420245398772 1150.7774749651414,1087.9700215489922 1360.880693996563,907.1216811168827 1422.9114847525882,919.2081959018731 1476.8758419398293,1030.8967220475977 1303.872225230103,1285.1061180292365" stroke="#336677" stroke-width="0.7" /><polygon fill="none" opacity="0.2" points="901.5735006951713,783.306398700264 926.2661691542289,952.4137645107794 1328.9891622729936,880.1301503612576 1184.9268926989018,720.5317536762345 1157.3044152156908,710.9119853984993" stroke="#336677" stroke-width="0.7" /><polygon fill="none" opacity="0.2" points="616.5796916780697,1284.2318377543718 838.5674812441544,1280.6629022308014 847.4890067806538,1275.2775449978599 904.6424050632911,1052.495931283906 663.8255787943183,1059.376412034448" stroke="#336677" stroke-width="0.7" /><polygon fill="none" opacity="0.2" points="592.8674236438745,2627.0059369285987 610.4967099250593,2688.5996161579237 422.0140562248996,2990.883117375161 376.97614623308425,2957.317127852959 316.9667915994891,2682.8481123976635 508.44279549945554,2591.433762148647" stroke="#336677" stroke-width="0.7" /><polygon fill="none" opacity="0.2" points="657.9477611940298,2422.0771144278606 545.7830304896828,2367.4327584436915 486.3661847455539,2448.415718569023 508.44279549945554,2591.433762148647 592.8674236438745,2627.0059369285987 781.8163817355551,2535.623349924259" stroke="#336677" stroke-width="0.7" /><polygon fill="none" opacity="0.2" points="2373.3428300238047,1079.4810166631512 1922.5594799906023,1590.5804487430496 2062.738975477419,1694.2548672801745 3144.8852305480486,1850.4917886049614 7916.718319809017,1535.4138142901224 2653.6288023380653,934.5310151497077" stroke="#336677" stroke-width="0.7" /><polygon fill="none" opacity="0.2" points="1123.0746374751209,1408.6582314472562 1299.71169277799,1565.152464654184 1369.0471535555703,1411.4900921200874 1349.8863337713535,1390.938567674113" stroke="#336677" stroke-width="0.7" /><polygon fill="none" opacity="0.2" points="1772.6291106494728,2326.2943205424685 1743.7329466851122,2474.058795360221 1601.607682206172,2581.3778726198293 1477.8627438873796,2561.0863639170166 1562.579091907726,2358.0162943976566 1679.6151152167292,2209.2602273880825" stroke="#336677" stroke-width="0.7" /><polygon fill="none" opacity="0.2" points="422.0140562248996,2990.883117375161 610.4967099250593,2688.5996161579237 746.2976983292441,2889.260778128286 500.76049003571785,3086.567463364155" stroke="#336677" stroke-width="0.7" /><polygon fill="none" opacity="0.2" points="1435.888010700389,1401.0251094357977 1530.979217603912,1689.9560842580402 1321.947872036561,1712.4671522422166 1299.71169277799,1565.152464654184 1369.0471535555703,1411.4900921200874" stroke="#336677" stroke-width="0.7" /><polygon fill="none" opacity="0.2" points="2373.3428300238047,1079.4810166631512 1922.5594799906023,1590.5804487430496 1894.2548033114251,1580.133736598228 1853.511107781868,1183.3255714408012 1879.668704799474,1152.3864781941704" stroke="#336677" stroke-width="0.7" /><polygon fill="none" opacity="0.2" points="1914.8012849357533,905.6219272369715 1589.8032344511855,807.2891837570254 1794.8993875562567,678.4111956572171 2052.642878200809,768.3619440700809" stroke="#336677" stroke-width="0.7" /><polygon fill="none" opacity="0.2" points="1703.3812833029028,2146.365391064575 1697.185112747354,2023.7697307869305 1999.2088948787061,1950.6994609164421 1990.13336223571,2094.092876675782" stroke="#336677" stroke-width="0.7" /><polygon fill="none" opacity="0.2" points="443.0504807692308,1020.2145432692307 135.85663126697952,1083.84755495184 271.1659944050485,1258.2333289961616 499.40136830102625,1259.7058152793616" stroke="#336677" stroke-width="0.7" /><polygon fill="none" opacity="0.2" points="794.6239900559353,423.79568054692356 900.418779986292,782.742289239205 901.5735006951713,783.306398700264 1157.3044152156908,710.9119853984993 942.7182496575828,352.7181551976574 852.534188034188,388.10683760683764" stroke="#336677" stroke-width="0.7" /><polygon fill="none" opacity="0.2" points="2195.626188734455,700.2040965618141 2077.567335243553,431.2922636103152 1793.1495027269812,424.6778954122554 1794.8993875562567,678.4111956572171 2052.642878200809,768.3619440700809" stroke="#336677" stroke-width="0.7" /><polygon fill="none" opacity="0.2" points="583.7431323018629,1585.006788759078 727.0978817299206,1543.654457193292 658.0306366146727,1431.5716471378462 570.2948150490041,1540.70644957319" stroke="#336677" stroke-width="0.7" /><polygon fill="none" opacity="0.2" points="1123.0746374751209,1408.6582314472562 1349.8863337713535,1390.938567674113 1303.872225230103,1285.1061180292365 1152.8266871165645,1290.8420245398772 1100.7067160924553,1358.9989097252508 1105.2736809265687,1399.0577155559022" stroke="#336677" stroke-width="0.7" /><polygon fill="none" opacity="0.2" points="380.91099090580417,2182.5425786355927 280.45603352838845,2158.974300173968 255.36786961583238,2136.5983701979044 367.6809229037704,1877.1164884637028 410.66574727389354,1898.4448364336113 489.23223909848116,2007.7290543851054 562.0907297667586,2127.5541754015285" stroke="#336677" stroke-width="0.7" /><polygon fill="none" opacity="0.2" points="422.3750146834253,2408.111887701163 204.38740920096853,2414.209443099274 217.58231173380034,2385.6506129597196 383.1505681818182,2286.309659090909" stroke="#336677" stroke-width="0.7" /><polygon fill="none" opacity="0.2" points="902.400617343627,2496.8502838123386 1140.6153550200177,2809.4548869385494 1316.8574058816607,2655.65106014494 1363.993105530673,2595.5977051985305 1238.3349196906604,2351.2623438429505 1180.6890492453454,2321.9959788476367 975.3931599308585,2410.176763519631 903.7341205211726,2472.5394951140065" stroke="#336677" stroke-width="0.7" /><polygon fill="none" opacity="0.2" points="1987.0431950634213,3062.5958176208433 1910.834272432737,2717.1153683617413 1892.2662263067202,2722.6099942561746 1797.7433697347894,2855.5327613104523 1924.1964593066143,3184.310794197197 1932.6683527600617,3180.7204750384867" stroke="#336677" stroke-width="0.7" /><polygon fill="none" opacity="0.2" points="1301.583795782464,1770.0843507214206 1258.0675381263616,1865.6078431372548 1103.597119161938,2016.7202095154953 1086.228899082569,1998.1623853211008 1068.456179574316,1713.798873189054 1301.505716394723,1730.3978430480572 1301.6235556722688,1769.5204831932774" stroke="#336677" stroke-width="0.7" /><polygon fill="none" opacity="0.2" points="486.3661847455539,2448.415718569023 545.7830304896828,2367.4327584436915 642.9084865976849,2162.052887715312 631.1845164107905,2149.6714986394327 562.0907297667586,2127.5541754015285 380.91099090580417,2182.5425786355927 383.1505681818182,2286.309659090909 422.3750146834253,2408.111887701163" stroke="#336677" stroke-width="0.7" /><polygon fill="none" opacity="0.2" points="901.0907764156451,1764.8572679509632 1027.122948520129,1979.4525880207602 1086.228899082569,1998.1623853211008 1068.456179574316,1713.798873189054 1043.700932803593,1704.3254966315426 900.7597710693316,1748.9690113279164" stroke="#336677" stroke-width="0.7" /><polygon fill="none" opacity="0.2" points="1301.583795782464,1770.0843507214206 1399.5592495062542,1985.630348913759 1346.881815907954,2049.553526763382 1276.7607110300821,2033.8463992707384 1258.0675381263616,1865.6078431372548" stroke="#336677" stroke-width="0.7" /><polygon fill="none" opacity="0.2" points="1399.5592495062542,1985.630348913759 1480.1383438900045,1998.6095319017456 1514.7609908639402,2159.7839229873075 1410.46687211094,2197.9630200308166 1384.2380952380952,2190.677248677249 1346.881815907954,2049.553526763382" stroke="#336677" stroke-width="0.7" /><polygon fill="none" opacity="0.2" points="486.3661847455539,2448.415718569023 508.44279549945554,2591.433762148647 316.9667915994891,2682.8481123976635 -3.106902871105717,2569.8301771533293 204.38740920096853,2414.209443099274 422.3750146834253,2408.111887701163" stroke="#336677" stroke-width="0.7" /><polygon fill="none" opacity="0.2" points="246.7140921409214,1351.3386491557224 -2365.410878918254,2029.4864781807005 -719.0226904376012,1913.8805278999769 92.49670355545095,1732.552018619478 260.4548872180451,1494.0315211104685" stroke="#336677" stroke-width="0.7" /><polygon fill="none" opacity="0.2" points="616.5796916780697,1284.2318377543718 838.5674812441544,1280.6629022308014 879.7531449250388,1464.8543425814235 768.3313318239984,1585.8814843980706 727.0978817299206,1543.654457193292 658.0306366146727,1431.5716471378462 613.2045769764217,1286.6545228278837" stroke="#336677" stroke-width="0.7" /><polygon fill="none" opacity="0.2" points="1121.3035609051801,2908.115821498026 746.2976983292441,2889.260778128286 500.76049003571785,3086.567463364155 595.0045826283136,4240.482938522278 1092.5156571899465,3278.084466419448 1159.9804312778351,3049.0756002495505" stroke="#336677" stroke-width="0.7" /><polygon fill="none" opacity="0.2" points="616.5796916780697,1284.2318377543718 663.8255787943183,1059.376412034448 609.2884489375643,898.9357858279509 482.9972107688576,959.184816880912 443.0504807692308,1020.2145432692307 499.40136830102625,1259.7058152793616 572.2170301142264,1289.0875735548632 613.2045769764217,1286.6545228278837" stroke="#336677" stroke-width="0.7" /><polygon fill="none" opacity="0.2" points="1258.0675381263616,1865.6078431372548 1276.7607110300821,2033.8463992707384 1169.6412127684823,2091.5977809422097 1114.0142526964562,2064.176040061633 1103.597119161938,2016.7202095154953" stroke="#336677" stroke-width="0.7" /><polygon fill="none" opacity="0.2" points="294.9348469891412,241.30799605133268 385.98875051401046,-748.144422252247 517.5068493150685,-213.41952054794518 597.1235955056179,358.8258426966292" stroke="#336677" stroke-width="0.7" /><polygon fill="none" opacity="0.2" points="970.7385018645625,1288.9113387018322 847.4890067806538,1275.2775449978599 904.6424050632911,1052.495931283906 916.944032366824,1039.8037761294672 1059.8805338541667,1090.251953125" stroke="#336677" stroke-width="0.7" /><polygon fill="none" opacity="0.2" points="1077.6001029336078,2096.4678332475555 1089.62124248497,2232.7074148296592 1167.139474917956,2273.983356774496 1200.235773069515,2143.733409210296 1169.6412127684823,2091.5977809422097 1114.0142526964562,2064.176040061633" stroke="#336677" stroke-width="0.7" /><polygon fill="none" opacity="0.2" points="1483.5481603350283,1037.9397247980855 1561.7862309480754,1077.4070007749935 1853.511107781868,1183.3255714408012 1879.668704799474,1152.3864781941704 1914.8012849357533,905.6219272369715 1589.8032344511855,807.2891837570254 1526.6437246623043,813.5498931821622 1422.9114847525882,919.2081959018731 1476.8758419398293,1030.8967220475977" stroke="#336677" stroke-width="0.7" /><polygon fill="none" opacity="0.2" points="1483.5481603350283,1037.9397247980855 1561.7862309480754,1077.4070007749935 1632.9975124378109,1385.9892205638475 1489.6306183729005,1270.2896218447968" stroke="#336677" stroke-width="0.7" /><polygon fill="none" opacity="0.2" points="1772.6291106494728,2326.2943205424685 2088.9617470176477,2331.893128265799 2109.5753532182102,2289.2277572925414 1990.13336223571,2094.092876675782 1703.3812833029028,2146.365391064575 1676.4068122666063,2193.646486364151 1679.6151152167292,2209.2602273880825" stroke="#336677" stroke-width="0.7" /><polygon fill="none" opacity="0.2" points="1349.8863337713535,1390.938567674113 1369.0471535555703,1411.4900921200874 1435.888010700389,1401.0251094357977 1444.7872008324662,1395.3337669094692 1489.6306183729005,1270.2896218447968 1483.5481603350283,1037.9397247980855 1476.8758419398293,1030.8967220475977 1303.872225230103,1285.1061180292365" stroke="#336677" stroke-width="0.7" /><polygon fill="none" opacity="0.2" points="1438.492637032997,372.85614944095994 1740.055319843342,31.959203655352496 1756.4316834954263,410.104327985298 1560.7945313107741,461.9974718008557" stroke="#336677" stroke-width="0.7" /><polygon fill="none" opacity="0.2" points="1435.888010700389,1401.0251094357977 1530.979217603912,1689.9560842580402 1686.9531799339704,1703.8287684075888 1863.015839403693,1588.640775876673 1689.9157303370787,1466.8295880149813 1444.7872008324662,1395.3337669094692" stroke="#336677" stroke-width="0.7" /><polygon fill="none" opacity="0.2" points="92.49670355545095,1732.552018619478 -719.0226904376012,1913.8805278999769 255.36786961583238,2136.5983701979044 367.6809229037704,1877.1164884637028 308.12396628498726,1800.042779898219" stroke="#336677" stroke-width="0.7" /><polygon fill="none" opacity="0.2" points="1301.583795782464,1770.0843507214206 1399.5592495062542,1985.630348913759 1480.1383438900045,1998.6095319017456 1521.2952755905512,1960.5393700787401 1301.6235556722688,1769.5204831932774" stroke="#336677" stroke-width="0.7" /><polygon fill="none" opacity="0.2" points="901.0907764156451,1764.8572679509632 1027.122948520129,1979.4525880207602 887.6437531220514,2005.4340067713827 870.4268851164627,1934.4669166995657" stroke="#336677" stroke-width="0.7" /><polygon fill="none" opacity="0.2" points="1384.2380952380952,2190.677248677249 1410.46687211094,2197.9630200308166 1422.0255220417635,2260.709976798144 1393.8791343405471,2580.5552915846915 1363.993105530673,2595.5977051985305 1238.3349196906604,2351.2623438429505 1357.888450148075,2198.7285291214216" stroke="#336677" stroke-width="0.7" /><polygon fill="none" opacity="0.2" points="1321.947872036561,1712.4671522422166 1301.505716394723,1730.3978430480572 1301.6235556722688,1769.5204831932774 1521.2952755905512,1960.5393700787401 1654.2929115407146,1875.904510837727 1686.9531799339704,1703.8287684075888 1530.979217603912,1689.9560842580402" stroke="#336677" stroke-width="0.7" /><polygon fill="none" opacity="0.2" points="781.8163817355551,2535.623349924259 592.8674236438745,2627.0059369285987 610.4967099250593,2688.5996161579237 746.2976983292441,2889.260778128286 1121.3035609051801,2908.115821498026 1140.6153550200177,2809.4548869385494 902.400617343627,2496.8502838123386" stroke="#336677" stroke-width="0.7" /><polygon fill="none" opacity="0.2" points="1606.8661359379182,2851.1625635536525 1608.5691087613293,2899.9811178247733 1696.6212358232303,2917.023464998045 1765.0612588984638,2859.7049456725367 1661.9289384347187,2776.8609505459217" stroke="#336677" stroke-width="0.7" /><polygon fill="none" opacity="0.2" points="942.7182496575828,352.7181551976574 1159.2407401597038,99.05953987104465 1367.0400203045685,343.0264162436548 1184.9268926989018,720.5317536762345 1157.3044152156908,710.9119853984993" stroke="#336677" stroke-width="0.7" /><polygon fill="none" opacity="0.2" points="1167.139474917956,2273.983356774496 1180.6890492453454,2321.9959788476367 1238.3349196906604,2351.2623438429505 1357.888450148075,2198.7285291214216 1200.235773069515,2143.733409210296" stroke="#336677" stroke-width="0.7" /><polygon fill="none" opacity="0.2" points="1608.5691087613293,2899.9811178247733 1696.6212358232303,2917.023464998045 1850.7206085638627,3235.728985893443 1818.541117036858,3266.976777220334 1472.834713213976,3070.2242580028096" stroke="#336677" stroke-width="0.7" /><polygon fill="none" opacity="0.2" points="1028.6108949416343,2266.78453307393 975.3931599308585,2410.176763519631 1180.6890492453454,2321.9959788476367 1167.139474917956,2273.983356774496 1089.62124248497,2232.7074148296592 1037.555914457563,2252.506905769659" stroke="#336677" stroke-width="0.7" /><polygon fill="none" opacity="0.2" points="1360.880693996563,907.1216811168827 1422.9114847525882,919.2081959018731 1526.6437246623043,813.5498931821622 1560.7945313107741,461.9974718008557 1438.492637032997,372.85614944095994 1367.0400203045685,343.0264162436548 1184.9268926989018,720.5317536762345 1328.9891622729936,880.1301503612576" stroke="#336677" stroke-width="0.7" /><polygon fill="none" opacity="0.2" points="1924.1964593066143,3184.310794197197 1850.7206085638627,3235.728985893443 1696.6212358232303,2917.023464998045 1765.0612588984638,2859.7049456725367 1797.7433697347894,2855.5327613104523" stroke="#336677" stroke-width="0.7" /><polygon fill="none" opacity="0.2" points="1489.6306183729005,1270.2896218447968 1632.9975124378109,1385.9892205638475 1689.9157303370787,1466.8295880149813 1444.7872008324662,1395.3337669094692" stroke="#336677" stroke-width="0.7" /><polygon fill="none" opacity="0.2" points="383.1505681818182,2286.309659090909 217.58231173380034,2385.6506129597196 280.45603352838845,2158.974300173968 380.91099090580417,2182.5425786355927" stroke="#336677" stroke-width="0.7" /><polygon fill="none" opacity="0.2" points="1028.6108949416343,2266.78453307393 975.3931599308585,2410.176763519631 903.7341205211726,2472.5394951140065 765.2635326872623,2199.9527404472524 842.9827484833097,2143.0777587727503 886.4859550561798,2142.4252106741574" stroke="#336677" stroke-width="0.7" /><polyline fill="none" opacity="0.3" points="0,1604.0 10,1606.4997395914713 20,1608.9979169270678 30,1611.4929707272743 40,1613.9833416646827 50,1616.4674733385227 60,1618.94381324736 70,1621.4108137593596 80,1623.8669330795062 90,1626.3106362131746 100,1628.7403959254523 110,1631.1546936956113 120,1633.552020666134 130,1635.9308785857002 140,1638.2897807455452 150,1640.6272529086048 160,1642.941834230865 170,1645.2320781743424 180,1647.496553411123 190,1649.7338447178956 200,1651.9425538604203 210,1654.1213004673798 220,1656.2687228930658 230,1658.3834790683643 240,1660.4642473395036 250,1662.5097272940461 260,1664.518640573604 270,1666.48973167277 280,1668.4217687237692 290,1670.313544266335 300,1672.1638760023334 310,1673.9716075346603 320,1675.7356090899523 330,1677.454778224658 340,1679.1280405140292 350,1680.7543502236026 360,1682.3326909627483 370,1683.8620763198815 380,1685.3415504789373 390,1686.7701888167257 400,1688.1470984807897 410,1689.4714189474093 420,1690.7423225594016 430,1691.959015043379 440,1693.1207360061435 450,1694.2267594099096 460,1695.276394026052 470,1696.2689838671033 480,1697.2039085967226 490,1698.0805839173872 500,1698.8984619355585 510,1699.6570315040985 520,1700.3558185417194 530,1700.9943863292688 540,1701.572335782666 550,1702.0893057023156 560,1702.544972998846 570,1702.9390528950296 580,1703.2712991037588 590,1703.5415039819686 600,1703.7494986604054 610,1703.895153149166 620,1703.9783764189358 630,1703.9991164578803 640,1703.9573603041506 650,1703.8531340539832 660,1703.686502845392 670,1703.457570817458 680,1703.1664810452469 690,1702.8134154503907 700,1702.3985946873936 710,1701.9222780057296 720,1701.3847630878195 730,1700.7863858629905 740,1700.12752029753 750,1699.4085781609695 760,1698.6300087687414 770,1697.7922987013728 780,1696.8959715003868 790,1695.9415873411076 800,1694.929742682568 810,1693.861069894743 820,1692.7362368633376 830,1691.5559465723818 840,1690.3209366648873 850,1689.0319789818452 860,1687.6898790798498 870,1686.2954757276525 880,1684.849640381959 890,1683.3532766427961 900,1681.8073196887922 910,1680.2127356927203 920,1678.570521217672 930,1676.881702594238 940,1675.1473352790845 950,1673.368503195327 960,1671.546318055115 970,1669.681918664846 980,1667.7764702134505 990,1665.8311635441848 1000,1663.8472144103957 1010,1661.8258627157109 1020,1659.7683717391417 1030,1657.6760273455745 1040,1655.5501371821465 1050,1653.392029861009 1060,1651.2030541289882 1070,1648.9845780246626 1080,1646.737988023383 1090,1644.4646881707702 1100,1642.1660992052332 1110,1639.843657670053 1120,1637.4988150155905 1130,1635.1330366921768 1140,1632.7478012342544 1150,1630.344599336342 1160,1627.9249329213983 1170,1625.4903142021687 1180,1623.0422647361027 1190,1620.582314474429 1200,1618.1120008059868 1210,1615.632867596406 1220,1613.1464642232436 1230,1610.654344607672 1240,1608.1580662433291 1250,1605.6591892229349 1260,1603.159275263285 1270,1600.6598867292291 1280,1598.162585657242 1290,1595.668932779203 1300,1593.1804865469892 1310,1590.698802158493 1320,1588.2254305856752 1330,1585.761917605257 1340,1583.3098028326601 1350,1580.8706187597977 1360,1578.4458897973168 1370,1576.0371313218905 1380,1573.645848729157 1390,1571.2735364928978 1400,1568.921677231038 1410,1566.5917407790603 1420,1564.285183271404 1430,1562.0034462314302 1440,1559.7479556705148 1450,1557.520121196839 1460,1555.32133513443 1470,1553.152971653003 1480,1551.0163859091506 1490,1548.912913199414 1500,1546.8438681257655 1510,1544.8105437740262 1520,1542.814210905728 1530,1540.8561171639305 1540,1538.9374862934833 1550,1537.0595173762265 1560,1535.2233840816027 1570,1533.4302339331523 1580,1531.6811875913488 1590,1529.9773381532218 1600,1528.319750469207 1610,1526.709460477651 1620,1525.1474745573805 1630,1523.6347688987512 1640,1522.172288893559 1650,1520.7609485442013 1660,1519.4016298924553 1670,1518.0951824682309 1680,1516.842422758641 1690,1515.6441336977257 1700,1514.5010641771416 1710,1513.4139285781307 1720,1512.3834063250545 1730,1511.4101414607762 1740,1510.494742244155 1750,1509.6377807699037 1760,1508.8397926110483 1770,1508.1012764842126 1780,1507.4226939379362 1790,1506.8044690642214 1800,1506.2469882334904 1810,1505.7505998531155 1820,1505.3156141496763 1830,1504.9423029750783 1840,1504.6308996366536 1850,1504.3815987513522 1860,1504.194556124112 1870,1504.069888650487 1880,1504.00767424359 1890,1504.0079517853999 1900,1504.0707211024621 1910,1504.1959429659971 1920,1504.383539116416 1930,1504.6333923122313 1940,1504.9453464033286 1950,1505.3192064285558 1960,1505.7547387375666 1970,1506.2516711368453 1980,1506.8096930598178 1990,1507.4284557609471 2000,1508.1075725336862 2010,1508.8466189521585 2020,1509.6451331364094 2030,1510.5026160410666 2040,1511.4185317672268 2050,1512.3923078973758 2060,1513.4233358531296 2070,1514.5109712755775 2080,1515.6545344279848 2090,1516.8533106206053 2100,1518.106550657341 2110,1519.413471303963 2120,1520.7732557776098 2130,1522.1850542572483 2140,1523.6479844147846 2150,1525.1611319664903 2160,1526.7235512444013 2170,1528.3342657873275 2180,1529.9922689511106 2190,1531.6965245377437 2200,1533.4459674429609 2210,1535.2395043218933 2220,1537.0760142723739 2230,1538.9543495354644 2240,1540.873336212768 2250,1542.8317750000767 2260,1544.828441936899 2270,1546.8620891713933 2280,1548.9314457402363 2290,1551.0352183629327 2300,1553.1720922500742 2310,1555.3407319250396 2320,1557.5397820586243 2330,1559.767868316077 2340,1562.023598216014 2350,1564.3055620006753 2360,1566.6123335169764 2370,1568.9424711078082 2380,1571.2945185130259 2390,1573.6670057795636 2400,1576.0584501801075 2410,1578.467357139752 2420,1580.8922211700608 2430,1583.3315268099477 2440,1585.7837495727904 2450,1588.2473568991857 2460,1590.7208091147484 2470,1593.2025603923578" stroke="#003344" stroke-width="1.2" /><polyline fill="none" opacity="0.3" points="0,1754.0 10,1756.4997395914713 20,1758.9979169270678 30,1761.4929707272743 40,1763.9833416646827 50,1766.4674733385227 60,1768.94381324736 70,1771.4108137593596 80,1773.8669330795062 90,1776.3106362131746 100,1778.7403959254523 110,1781.1546936956113 120,1783.552020666134 130,1785.9308785857002 140,1788.2897807455452 150,1790.6272529086048 160,1792.941834230865 170,1795.2320781743424 180,1797.496553411123 190,1799.7338447178956 200,1801.9425538604203 210,1804.1213004673798 220,1806.2687228930658 230,1808.3834790683643 240,1810.4642473395036 250,1812.5097272940461 260,1814.518640573604 270,1816.48973167277 280,1818.4217687237692 290,1820.313544266335 300,1822.1638760023334 310,1823.9716075346603 320,1825.7356090899523 330,1827.454778224658 340,1829.1280405140292 350,1830.7543502236026 360,1832.3326909627483 370,1833.8620763198815 380,1835.3415504789373 390,1836.7701888167257 400,1838.1470984807897 410,1839.4714189474093 420,1840.7423225594016 430,1841.959015043379 440,1843.1207360061435 450,1844.2267594099096 460,1845.276394026052 470,1846.2689838671033 480,1847.2039085967226 490,1848.0805839173872 500,1848.8984619355585 510,1849.6570315040985 520,1850.3558185417194 530,1850.9943863292688 540,1851.572335782666 550,1852.0893057023156 560,1852.544972998846 570,1852.9390528950296 580,1853.2712991037588 590,1853.5415039819686 600,1853.7494986604054 610,1853.895153149166 620,1853.9783764189358 630,1853.9991164578803 640,1853.9573603041506 650,1853.8531340539832 660,1853.686502845392 670,1853.457570817458 680,1853.1664810452469 690,1852.8134154503907 700,1852.3985946873936 710,1851.9222780057296 720,1851.3847630878195 730,1850.7863858629905 740,1850.12752029753 750,1849.4085781609695 760,1848.6300087687414 770,1847.7922987013728 780,1846.8959715003868 790,1845.9415873411076 800,1844.929742682568 810,1843.861069894743 820,1842.7362368633376 830,1841.5559465723818 840,1840.3209366648873 850,1839.0319789818452 860,1837.6898790798498 870,1836.2954757276525 880,1834.849640381959 890,1833.3532766427961 900,1831.8073196887922 910,1830.2127356927203 920,1828.570521217672 930,1826.881702594238 940,1825.1473352790845 950,1823.368503195327 960,1821.546318055115 970,1819.681918664846 980,1817.7764702134505 990,1815.8311635441848 1000,1813.8472144103957 1010,1811.8258627157109 1020,1809.7683717391417 1030,1807.6760273455745 1040,1805.5501371821465 1050,1803.392029861009 1060,1801.2030541289882 1070,1798.9845780246626 1080,1796.737988023383 1090,1794.4646881707702 1100,1792.1660992052332 1110,1789.843657670053 1120,1787.4988150155905 1130,1785.1330366921768 1140,1782.7478012342544 1150,1780.344599336342 1160,1777.9249329213983 1170,1775.4903142021687 1180,1773.0422647361027 1190,1770.582314474429 1200,1768.1120008059868 1210,1765.632867596406 1220,1763.1464642232436 1230,1760.654344607672 1240,1758.1580662433291 1250,1755.6591892229349 1260,1753.159275263285 1270,1750.6598867292291 1280,1748.162585657242 1290,1745.668932779203 1300,1743.1804865469892 1310,1740.698802158493 1320,1738.2254305856752 1330,1735.761917605257 1340,1733.3098028326601 1350,1730.8706187597977 1360,1728.4458897973168 1370,1726.0371313218905 1380,1723.645848729157 1390,1721.2735364928978 1400,1718.921677231038 1410,1716.5917407790603 1420,1714.285183271404 1430,1712.0034462314302 1440,1709.7479556705148 1450,1707.520121196839 1460,1705.32133513443 1470,1703.152971653003 1480,1701.0163859091506 1490,1698.912913199414 1500,1696.8438681257655 1510,1694.8105437740262 1520,1692.814210905728 1530,1690.8561171639305 1540,1688.9374862934833 1550,1687.0595173762265 1560,1685.2233840816027 1570,1683.4302339331523 1580,1681.6811875913488 1590,1679.9773381532218 1600,1678.319750469207 1610,1676.709460477651 1620,1675.1474745573805 1630,1673.6347688987512 1640,1672.172288893559 1650,1670.7609485442013 1660,1669.4016298924553 1670,1668.0951824682309 1680,1666.842422758641 1690,1665.6441336977257 1700,1664.5010641771416 1710,1663.4139285781307 1720,1662.3834063250545 1730,1661.4101414607762 1740,1660.494742244155 1750,1659.6377807699037 1760,1658.8397926110483 1770,1658.1012764842126 1780,1657.4226939379362 1790,1656.8044690642214 1800,1656.2469882334904 1810,1655.7505998531155 1820,1655.3156141496763 1830,1654.9423029750783 1840,1654.6308996366536 1850,1654.3815987513522 1860,1654.194556124112 1870,1654.069888650487 1880,1654.00767424359 1890,1654.0079517853999 1900,1654.0707211024621 1910,1654.1959429659971 1920,1654.383539116416 1930,1654.6333923122313 1940,1654.9453464033286 1950,1655.3192064285558 1960,1655.7547387375666 1970,1656.2516711368453 1980,1656.8096930598178 1990,1657.4284557609471 2000,1658.1075725336862 2010,1658.8466189521585 2020,1659.6451331364094 2030,1660.5026160410666 2040,1661.4185317672268 2050,1662.3923078973758 2060,1663.4233358531296 2070,1664.5109712755775 2080,1665.6545344279848 2090,1666.8533106206053 2100,1668.106550657341 2110,1669.413471303963 2120,1670.7732557776098 2130,1672.1850542572483 2140,1673.6479844147846 2150,1675.1611319664903 2160,1676.7235512444013 2170,1678.3342657873275 2180,1679.9922689511106 2190,1681.6965245377437 2200,1683.4459674429609 2210,1685.2395043218933 2220,1687.0760142723739 2230,1688.9543495354644 2240,1690.873336212768 2250,1692.8317750000767 2260,1694.828441936899 2270,1696.8620891713933 2280,1698.9314457402363 2290,1701.0352183629327 2300,1703.1720922500742 2310,1705.3407319250396 2320,1707.5397820586243 2330,1709.767868316077 2340,1712.023598216014 2350,1714.3055620006753 2360,1716.6123335169764 2370,1718.9424711078082 2380,1721.2945185130259 2390,1723.6670057795636 2400,1726.0584501801075 2410,1728.467357139752 2420,1730.8922211700608 2430,1733.3315268099477 2440,1735.7837495727904 2450,1738.2473568991857 2460,1740.7208091147484 2470,1743.2025603923578" stroke="#003344" stroke-width="1.2" /><polyline fill="none" opacity="0.3" points="0,1904.0 10,1906.4997395914713 20,1908.9979169270678 30,1911.4929707272743 40,1913.9833416646827 50,1916.4674733385227 60,1918.94381324736 70,1921.4108137593596 80,1923.8669330795062 90,1926.3106362131746 100,1928.7403959254523 110,1931.1546936956113 120,1933.552020666134 130,1935.9308785857002 140,1938.2897807455452 150,1940.6272529086048 160,1942.941834230865 170,1945.2320781743424 180,1947.496553411123 190,1949.7338447178956 200,1951.9425538604203 210,1954.1213004673798 220,1956.2687228930658 230,1958.3834790683643 240,1960.4642473395036 250,1962.5097272940461 260,1964.518640573604 270,1966.48973167277 280,1968.4217687237692 290,1970.313544266335 300,1972.1638760023334 310,1973.9716075346603 320,1975.7356090899523 330,1977.454778224658 340,1979.1280405140292 350,1980.7543502236026 360,1982.3326909627483 370,1983.8620763198815 380,1985.3415504789373 390,1986.7701888167257 400,1988.1470984807897 410,1989.4714189474093 420,1990.7423225594016 430,1991.959015043379 440,1993.1207360061435 450,1994.2267594099096 460,1995.276394026052 470,1996.2689838671033 480,1997.2039085967226 490,1998.0805839173872 500,1998.8984619355585 510,1999.6570315040985 520,2000.3558185417194 530,2000.9943863292688 540,2001.572335782666 550,2002.0893057023156 560,2002.544972998846 570,2002.9390528950296 580,2003.2712991037588 590,2003.5415039819686 600,2003.7494986604054 610,2003.895153149166 620,2003.9783764189358 630,2003.9991164578803 640,2003.9573603041506 650,2003.8531340539832 660,2003.686502845392 670,2003.457570817458 680,2003.1664810452469 690,2002.8134154503907 700,2002.3985946873936 710,2001.9222780057296 720,2001.3847630878195 730,2000.7863858629905 740,2000.12752029753 750,1999.4085781609695 760,1998.6300087687414 770,1997.7922987013728 780,1996.8959715003868 790,1995.9415873411076 800,1994.929742682568 810,1993.861069894743 820,1992.7362368633376 830,1991.5559465723818 840,1990.3209366648873 850,1989.0319789818452 860,1987.6898790798498 870,1986.2954757276525 880,1984.849640381959 890,1983.3532766427961 900,1981.8073196887922 910,1980.2127356927203 920,1978.570521217672 930,1976.881702594238 940,1975.1473352790845 950,1973.368503195327 960,1971.546318055115 970,1969.681918664846 980,1967.7764702134505 990,1965.8311635441848 1000,1963.8472144103957 1010,1961.8258627157109 1020,1959.7683717391417 1030,1957.6760273455745 1040,1955.5501371821465 1050,1953.392029861009 1060,1951.2030541289882 1070,1948.9845780246626 1080,1946.737988023383 1090,1944.4646881707702 1100,1942.1660992052332 1110,1939.843657670053 1120,1937.4988150155905 1130,1935.1330366921768 1140,1932.7478012342544 1150,1930.344599336342 1160,1927.9249329213983 1170,1925.4903142021687 1180,1923.0422647361027 1190,1920.582314474429 1200,1918.1120008059868 1210,1915.632867596406 1220,1913.1464642232436 1230,1910.654344607672 1240,1908.1580662433291 1250,1905.6591892229349 1260,1903.159275263285 1270,1900.6598867292291 1280,1898.162585657242 1290,1895.668932779203 1300,1893.1804865469892 1310,1890.698802158493 1320,1888.2254305856752 1330,1885.761917605257 1340,1883.3098028326601 1350,1880.8706187597977 1360,1878.4458897973168 1370,1876.0371313218905 1380,1873.645848729157 1390,1871.2735364928978 1400,1868.921677231038 1410,1866.5917407790603 1420,1864.285183271404 1430,1862.0034462314302 1440,1859.7479556705148 1450,1857.520121196839 1460,1855.32133513443 1470,1853.152971653003 1480,1851.0163859091506 1490,1848.912913199414 1500,1846.8438681257655 1510,1844.8105437740262 1520,1842.814210905728 1530,1840.8561171639305 1540,1838.9374862934833 1550,1837.0595173762265 1560,1835.2233840816027 1570,1833.4302339331523 1580,1831.6811875913488 1590,1829.9773381532218 1600,1828.319750469207 1610,1826.709460477651 1620,1825.1474745573805 1630,1823.6347688987512 1640,1822.172288893559 1650,1820.7609485442013 1660,1819.4016298924553 1670,1818.0951824682309 1680,1816.842422758641 1690,1815.6441336977257 1700,1814.5010641771416 1710,1813.4139285781307 1720,1812.3834063250545 1730,1811.4101414607762 1740,1810.494742244155 1750,1809.6377807699037 1760,1808.8397926110483 1770,1808.1012764842126 1780,1807.4226939379362 1790,1806.8044690642214 1800,1806.2469882334904 1810,1805.7505998531155 1820,1805.3156141496763 1830,1804.9423029750783 1840,1804.6308996366536 1850,1804.3815987513522 1860,1804.194556124112 1870,1804.069888650487 1880,1804.00767424359 1890,1804.0079517853999 1900,1804.0707211024621 1910,1804.1959429659971 1920,1804.383539116416 1930,1804.6333923122313 1940,1804.9453464033286 1950,1805.3192064285558 1960,1805.7547387375666 1970,1806.2516711368453 1980,1806.8096930598178 1990,1807.4284557609471 2000,1808.1075725336862 2010,1808.8466189521585 2020,1809.6451331364094 2030,1810.5026160410666 2040,1811.4185317672268 2050,1812.3923078973758 2060,1813.4233358531296 2070,1814.5109712755775 2080,1815.6545344279848 2090,1816.8533106206053 2100,1818.106550657341 2110,1819.413471303963 2120,1820.7732557776098 2130,1822.1850542572483 2140,1823.6479844147846 2150,1825.1611319664903 2160,1826.7235512444013 2170,1828.3342657873275 2180,1829.9922689511106 2190,1831.6965245377437 2200,1833.4459674429609 2210,1835.2395043218933 2220,1837.0760142723739 2230,1838.9543495354644 2240,1840.873336212768 2250,1842.8317750000767 2260,1844.828441936899 2270,1846.8620891713933 2280,1848.9314457402363 2290,1851.0352183629327 2300,1853.1720922500742 2310,1855.3407319250396 2320,1857.5397820586243 2330,1859.767868316077 2340,1862.023598216014 2350,1864.3055620006753 2360,1866.6123335169764 2370,1868.9424711078082 2380,1871.2945185130259 2390,1873.6670057795636 2400,1876.0584501801075 2410,1878.467357139752 2420,1880.8922211700608 2430,1883.3315268099477 2440,1885.7837495727904 2450,1888.2473568991857 2460,1890.7208091147484 2470,1893.2025603923578" stroke="#003344" stroke-width="1.2" /></svg>